# xmcd
#
# Track frame offsets:
#	150
#	12460
#	25535
#	37102
#	49120
#	59650
#	70872
#	83917
#	106502
#	119200
#	131715
#	139917
#	154205
#	167692
#	180842
#	192092
#	205205
#	218130
#	229497
#	243087
#	254082
#	266085
#
# Disc length: 3708 seconds
#
# Revision: 4
# Processed by: cddbd v1.5.2PL0 Copyright (c) Steve Scherf et al.
# Submitted via: audiograbber 1.83.01
#
DISCID=440e7a16
DTITLE=Elmore James - The Sky Is Crying
DYEAR=1993
DGENRE=Blues
TTITLE0=The Sky Is Crying
TTITLE1=Dust My Broom
TTITLE2=Fine Little Mama
TTITLE3=Can't Stop Loving You
TTITLE4=Done Somebody Wrong
TTITLE5=Rollin' And Tumblin'
TTITLE6=I Need You Baby
TTITLE7=Something Inside Me
TTITLE8=I'm Worried
TTITLE9=Early One Morning
TTITLE10=She Done Moved
TTITLE11=Strange Angel
TTITLE12=Anna Lee
TTITLE13=Stranger Blues
TTITLE14=Look On Yonder Wall
TTITLE15=Standing At The Crossroads
TTITLE16=Baby Please Set A Date
TTITLE17=Shake Your Money Maker
TTITLE18=My Bleeding Heart
TTITLE19=One Way Out
TTITLE20=Make My Dreams Come True
TTITLE21=Mean Mistreatin' Mama
EXTD=
EXTT0=
EXTT1=
EXTT2=
EXTT3=
EXTT4=
EXTT5=
EXTT6=
EXTT7=
EXTT8=
EXTT9=
EXTT10=
EXTT11=
EXTT12=
EXTT13=
EXTT14=
EXTT15=
EXTT16=
EXTT17=
EXTT18=
EXTT19=
EXTT20=
EXTT21=
PLAYORDER=
